<svg xmlns="http://www.w3.org/2000/svg" width="800" height="500" viewBox="0 0 800 500">
<defs>
  <linearGradient id="bg" x1="0" y1="0" x2="1" y2="1"><stop stop-color="#d7e7e8"/><stop offset="1" stop-color="#a8c9ce"/></linearGradient>
  <filter id="shadow" x="-30%" y="-30%" width="160%" height="160%"><feDropShadow dx="0" dy="18" stdDeviation="18" flood-color="#1f2a22" flood-opacity=".18"/></filter>
</defs>
<rect width="800" height="500" rx="40" fill="url(#bg)"/>
<circle cx="112" cy="100" r="90" fill="#fff" opacity=".12"/>
<circle cx="720" cy="410" r="125" fill="#fff" opacity=".08"/>

<g filter="url(#shadow)" transform="translate(170 45)">
  <ellipse cx="230" cy="470" rx="170" ry="34" fill="#173020" opacity=".15"/>
  <path d="M105 120h250l-28 330H133z" fill="#f7f3eb" opacity=".96"/>
  <path d="M128 250h205l-18 185H146z" fill="#d8c0a7"/>
  <path d="M130 310h201l-12 120H142z" fill="#eee5d8"/>
  <g fill="#fff" opacity=".7">
    <rect x="150" y="145" width="65" height="65" rx="12" transform="rotate(12 182 177)"/>
    <rect x="230" y="160" width="72" height="72" rx="12" transform="rotate(-9 266 196)"/>
    <rect x="180" y="225" width="70" height="70" rx="12" transform="rotate(18 215 260)"/>
  </g>
  <path d="M250 40l-48 390" stroke="#2d5c45" stroke-width="18" stroke-linecap="round"/>
  <ellipse cx="230" cy="120" rx="125" ry="34" fill="#fffaf2"/>
  <ellipse cx="230" cy="123" rx="108" ry="24" fill="#8b5e3c"/>
</g>
</svg>